<svg version="1.1" xmlns="http://www.w3.org/2000/svg" width="32" height="32" viewBox="0 0 32 32">
<title>kodi</title>
<path fill="#fff" d="M31.483 16.254c-0.103 0.329-0.32 0.564-0.555 0.8-1.561 1.561-3.123 3.123-4.684 4.684-0.564 0.564-1.166 0.564-1.721 0-1.608-1.618-3.226-3.226-4.835-4.844-0.555-0.555-0.555-1.148 0-1.703 1.618-1.627 3.245-3.245 4.863-4.872 0.527-0.527 1.148-0.527 1.674 0 1.571 1.571 3.142 3.142 4.713 4.713 0.235 0.235 0.451 0.47 0.555 0.8v0.423h-0.009z"></path>
<path fill="#fff" d="M15.953 31.37c-0.329-0.103-0.555-0.329-0.79-0.564-1.552-1.561-3.123-3.123-4.675-4.684-0.564-0.564-0.564-1.157 0-1.712 1.618-1.618 3.236-3.236 4.854-4.854 0.536-0.536 1.157-0.546 1.693-0.009 1.618 1.618 3.236 3.236 4.854 4.854 0.555 0.564 0.564 1.166 0 1.712-1.571 1.58-3.151 3.151-4.722 4.731-0.226 0.226-0.461 0.433-0.771 0.517l-0.442 0.009z"></path>
<path fill="#fff" d="M10.281 12.172c0-1.797 0.019-3.593-0.009-5.39-0.009-0.527 0.113-0.931 0.517-1.27 0.32-0.282 0.602-0.593 0.903-0.894 1.185-1.185 2.37-2.38 3.546-3.556 0.564-0.564 1.157-0.564 1.712 0 1.608 1.608 3.226 3.226 4.835 4.844 0.555 0.555 0.555 1.166 0 1.712-1.909 1.909-3.81 3.81-5.719 5.728-1.684 1.693-3.367 3.367-5.051 5.061-0.32 0.32-0.583 0.245-0.705-0.188-0.038-0.132-0.038-0.282-0.038-0.414 0.009-1.891 0.009-3.762 0.009-5.634z"></path>
<path fill="#fff" d="M6.424 16.066c0 1.655 0 3.292 0 4.948 0 0.151-0.028 0.329-0.085 0.47-0.113 0.292-0.32 0.329-0.536 0.113-0.762-0.762-1.514-1.514-2.276-2.276-0.875-0.875-1.75-1.75-2.624-2.624-0.357-0.357-0.357-0.865 0-1.232 1.608-1.627 3.226-3.264 4.835-4.882 0.113-0.113 0.207-0.254 0.386-0.188 0.169 0.066 0.245 0.226 0.263 0.395 0.019 0.113 0.028 0.216 0.028 0.329 0.009 1.637 0.009 3.292 0.009 4.948v0z"></path>
</svg>
