<?xml version="1.0" encoding="utf-8"?>
<!-- Generator: Adobe Illustrator 22.1.0, SVG Export Plug-In . SVG Version: 6.00 Build 0)  -->
<svg version="1.1" id="Capa_1" xmlns="http://www.w3.org/2000/svg" xmlns:xlink="http://www.w3.org/1999/xlink" x="0px" y="0px"
	 viewBox="0 0 32 18" style="enable-background:new 0 0 32 18;" xml:space="preserve">
<title>owncloud</title>
<path d="M14.5,0.6c-2.3,0-4.2,1.9-4.2,4.2c0,1,0.3,1.8,0.9,2.6c1.2-1.4,2.8-2.2,4.7-2.2c1,0,1.8,0.2,2.6,0.6c0.1-0.3,0.1-0.6,0.1-1
	C18.8,2.5,16.9,0.6,14.5,0.6C14.5,0.6,14.5,0.6,14.5,0.6z M9.1,2.5c-1.2,0-2.2,1-2.2,2.2c0,0.4,0.1,0.8,0.3,1
	c0.8-0.4,1.5-0.6,2.5-0.6c0.1,0,0.2,0,0.3,0c0-0.1,0-0.3,0-0.4c0-0.7,0.1-1.3,0.4-1.9C9.9,2.6,9.5,2.5,9.1,2.5L9.1,2.5z M19.3,4
	c-0.1,0-0.2,0-0.3,0c0.1,0.3,0.1,0.5,0.1,0.8c0,0.4-0.1,0.8-0.1,1.1c1,0.6,1.9,1.4,2.5,2.6c0.6-0.3,1.2-0.5,2-0.6
	C23.3,5.7,21.6,4,19.3,4C19.3,4,19.3,4,19.3,4z M16,5.6c-3.2,0-5.8,2.6-5.8,5.8s2.6,5.8,5.8,5.8s5.8-2.6,5.8-5.8S19.2,5.6,16,5.6z
	 M9.7,5.7c-2.5,0-4.5,2-4.5,4.5c0,1.5,0.7,2.8,1.8,3.6c0.4-0.9,1.3-1.5,2.4-1.5c0.1,0,0.3,0,0.4,0.1c-0.1-0.3-0.1-0.6-0.1-0.9
	c0-1.4,0.4-2.8,1.2-3.8c-0.5-0.6-0.8-1.3-1-2C9.9,5.7,9.7,5.7,9.7,5.7C9.7,5.7,9.7,5.7,9.7,5.7z M23.9,8.3c-0.8,0-1.5,0.2-2.1,0.5
	c0.4,0.8,0.6,1.7,0.6,2.6c0,1.7-0.7,3.3-1.8,4.5c0.8,1,2,1.5,3.3,1.5c2.5,0,4.5-2,4.5-4.5S26.4,8.3,23.9,8.3
	C23.9,8.3,23.9,8.3,23.9,8.3z M4.7,8.9c-2.3,0-4.2,1.9-4.2,4.2s1.9,4.2,4.2,4.2c0.9,0,1.7-0.3,2.4-0.8c-0.3-0.4-0.4-1-0.4-1.5
	c0-0.3,0.1-0.6,0.1-0.8c-1.2-1-2.1-2.4-2.1-4c0-0.4,0.1-0.8,0.2-1.2C4.8,8.9,4.7,8.9,4.7,8.9L4.7,8.9z M29.2,12.5
	c-0.1,0-0.3,0-0.4,0.1c0,0.1,0,0.2,0,0.3c0,1.3-0.5,2.6-1.3,3.4c0.4,0.5,1,0.8,1.7,0.8c1.2,0,2.3-1,2.3-2.3S30.5,12.5,29.2,12.5
	C29.2,12.5,29.2,12.5,29.2,12.5z M9.3,12.7c-1.2,0-2.3,1-2.3,2.3s1,2.3,2.3,2.3c1,0,1.8-0.6,2.1-1.4c-0.8-0.8-1.4-1.9-1.7-3.1
	C9.7,12.8,9.5,12.7,9.3,12.7C9.3,12.7,9.3,12.7,9.3,12.7z"/>
</svg>
