<svg version="1.1" xmlns="http://www.w3.org/2000/svg" width="32" height="32" viewBox="0 0 32 32">
<title>torrent</title>
<path fill="#fff" d="M0.609 15.295c0.353-8.112 8.048-15.23 16.16-14.717 8.689 0.353 16.16 9.138 14.493 17.828-1.379 0-2.758-0.513-3.559-1.731-2.020-3.046-2.982-6.669-4.778-9.78-1.315 0.224-2.597 0.449-3.912 0.737 0.513 3.559 2.758 6.509 3.559 9.908-0.353 2.982-4.136 4.713-6.733 3.271-2.18-0.802-3.046-3.11-3.848-5.13-0.737-2.116-1.507-4.136-2.693-6.092-1.667 0-3.399 0-4.938 0.802 1.379 6.958 5.226 13.178 6.733 20.136-6.22-2.052-10.838-8.593-10.485-15.23z"></path>
<path fill="#fff" d="M20.457 23.984c1.603-0.866 2.822-2.309 4.2-3.463 1.956 0.449 3.912 0.737 5.932 0.866-2.244 5.066-6.894 9.042-12.377 10.068-1.443-2.18-2.405-4.649-3.11-7.086 1.796-0.032 3.623 0.192 5.355-0.385z"></path>
</svg>
